<?xml version="1.0" standalone="no"?>
<!DOCTYPE svg PUBLIC "-//W3C//DTD SVG 20010904//EN"
 "http://www.w3.org/TR/2001/REC-SVG-20010904/DTD/svg10.dtd">
<svg version="1.0" xmlns="http://www.w3.org/2000/svg"
 width="50.000000pt" height="50.000000pt" viewBox="0 0 50.000000 50.000000"
 preserveAspectRatio="xMidYMid meet">
<metadata>
Created by potrace 1.10, written by Peter Selinger 2001-2011
</metadata>
<g transform="translate(0.000000,50.000000) scale(0.100000,-0.100000)"
fill="#000000" stroke="none">
<path d="M308 375 c-14 -8 -34 -33 -44 -55 l-18 -40 -25 47 c-47 87 -81 68
-138 -74 -28 -72 -34 -98 -26 -111 17 -28 50 -26 69 2 21 33 57 34 78 1 17
-26 45 -32 63 -14 8 8 19 6 41 -5 71 -37 132 20 132 124 0 57 -19 101 -52 124
-27 19 -45 20 -80 1z m77 -40 c24 -23 29 -47 25 -110 -6 -87 -88 -111 -120
-36 -19 47 -8 130 20 153 30 24 46 23 75 -7z m-162 -84 c21 -51 36 -95 33 -98
-11 -11 -36 7 -36 27 0 17 -6 20 -50 20 -45 0 -50 -3 -56 -25 -4 -15 -13 -25
-24 -25 -17 0 -15 9 16 88 20 48 38 93 41 100 14 32 40 2 76 -87z"/>
<path d="M320 311 c-15 -29 -12 -104 4 -127 34 -45 76 33 56 106 -12 45 -41
55 -60 21z m27 -83 c-2 -13 -4 -3 -4 22 0 25 2 35 4 23 2 -13 2 -33 0 -45z"/>
<path d="M151 283 c-8 -21 -16 -43 -18 -48 -2 -7 11 -11 32 -11 39 0 41 5 17
59 l-17 39 -14 -39z"/>
</g>
</svg>
