<?xml version="1.0" standalone="no"?>
<!DOCTYPE svg PUBLIC "-//W3C//DTD SVG 20010904//EN"
 "http://www.w3.org/TR/2001/REC-SVG-20010904/DTD/svg10.dtd">
<svg version="1.0" xmlns="http://www.w3.org/2000/svg"
 width="50.000000pt" height="50.000000pt" viewBox="0 0 50.000000 50.000000"
 preserveAspectRatio="xMidYMid meet">
<metadata>
Created by potrace 1.10, written by Peter Selinger 2001-2011
</metadata>
<g transform="translate(0.000000,50.000000) scale(0.100000,-0.100000)"
fill="#ffffff" stroke="none">
<path d="M128 363 c-37 -41 -91 -188 -78 -213 20 -37 44 -41 83 -13 l36 26 36
-27 c28 -22 38 -25 55 -16 14 7 26 8 39 0 51 -27 113 -2 137 56 42 100 -6 214
-89 214 -33 0 -45 -6 -70 -34 l-30 -34 -32 34 c-39 41 -54 42 -87 7z m259 -25
c64 -70 13 -224 -63 -190 -30 15 -44 49 -44 113 0 83 61 126 107 77z m-170
-70 c18 -46 35 -91 39 -100 4 -13 1 -18 -10 -18 -9 0 -21 11 -26 25 -8 22 -16
25 -55 25 -39 0 -45 -3 -51 -25 -4 -16 -13 -25 -25 -25 -18 0 -18 2 2 53 71
181 80 185 126 65z"/>
<path d="M320 311 c-15 -29 -12 -104 4 -127 12 -15 18 -17 33 -8 22 13 31 117
12 140 -16 20 -36 17 -49 -5z"/>
<path d="M152 283 c-5 -16 -13 -35 -16 -44 -6 -12 0 -15 29 -15 19 1 35 4 35
7 0 10 -30 79 -34 79 -2 0 -9 -12 -14 -27z"/>
</g>
</svg>
